<svg width="24" height="18" viewBox="0 0 24 18" fill="none" xmlns="http://www.w3.org/2000/svg">
<path d="M17.7897 4.69673H3.57813L6.48574 1.78912C6.89504 1.37982 6.89504 0.716321 6.48574 0.30702C6.07632 -0.102398 5.41294 -0.102282 5.00352 0.30702L0.306976 5.0038C-0.102325 5.4131 -0.102325 6.0766 0.306976 6.4859L5.00352 11.1824C5.20823 11.3872 5.4764 11.4894 5.74457 11.4894C6.01274 11.4894 6.28091 11.387 6.48562 11.1824C6.89493 10.7731 6.89493 10.1096 6.48562 9.70034L3.57801 6.79273H17.7896C20.0582 6.79273 21.904 8.63849 21.904 10.9072C21.904 13.1759 20.0582 15.0216 17.7896 15.0216H9.14451C8.56567 15.0216 8.09651 15.4908 8.09651 16.0696C8.09651 16.6485 8.56567 17.1176 9.14451 17.1176H17.7896C21.214 17.1176 24 14.3316 24 10.9072C24 7.48278 21.2141 4.69673 17.7897 4.69673Z" fill="#828282"/>
</svg>
